<svg xmlns="http://www.w3.org/2000/svg" aria-hidden="true"
    style="position:absolute;width:0;height:0;overflow:hidden">
    <defs>
        <symbol id="icon-antena" viewBox="0 0 30 32">
            <path fill="#212121"
                d="m29.86 22.1-8.44-8.5.93-4.62a2.16 2.16 0 1 0-1.24-1.29l-4.96.6L8.05.16A.53.53 0 0 0 7.69 0a.53.53 0 0 0-.37.16L5.8 1.66c-.21.2-.21.55 0 .75l.8.83A14.94 14.94 0 0 0 9.14 20.9c.04.04.09.08.14.1-.03.18-.05.36-.05.55v6.18h-6.4A2.67 2.67 0 0 0 .16 30.4v1.07c0 .3.23.53.53.53h24.53c.3 0 .53-.24.53-.53V30.4c0-1.47-1.2-2.66-2.66-2.66h-6.4v-2.75a14.85 14.85 0 0 0 10.09-1.46l.81.82a.53.53 0 0 0 .75 0l1.52-1.5c.2-.2.2-.54 0-.75zm-7.5-15.87a1.07 1.07 0 1 1 .76 1.82 1.07 1.07 0 0 1-.75-1.82zm-1.25 3.5-.6 2.95-1.17-1.18 1.77-1.76zm-.6-.9-1.93 1.92-1.48-1.5 3.4-.41zm2.58 19.97c.88 0 1.6.72 1.6 1.6v.53H1.22v-.53c0-.88.72-1.6 1.6-1.6H23.1zm-7.47-2.13v1.06H10.3v-1.06h5.33zM10.3 25.6v-4.05c0-1.3 1.2-2.35 2.67-2.35s2.66 1.05 2.66 2.35v4.05H10.3zm6.4-1.7v-2.35c0-1.89-1.68-3.42-3.73-3.42a3.8 3.8 0 0 0-3.28 1.79A13.87 13.87 0 0 1 7.4 4.03L26 22.74a13.82 13.82 0 0 1-9.31 1.16zm11.29-.68L6.92 2.04l.76-.75 7.93 7.98h.01l13.12 13.2-.76.75z"
                style="fill:var(--color1, #212121)" />
            <path fill="#afb1b8"
                d="M12.96 20.27a1.6 1.6 0 1 0 0 3.2 1.6 1.6 0 1 0 0-3.2zm.38 1.98c-.1.1-.24.15-.38.15a.53.53 0 0 1 0-1.07.53.53 0 0 1 .37.92z"
                style="fill:var(--color2, #afb1b8)" />
        </symbol>
        <symbol id="icon-reloj" viewBox="0 0 31 32">
            <path fill="#212121"
                d="M29.32 13.73A13.74 13.74 0 1 0 11.4 26.82c.06.02.12.02.17.02a.6.6 0 0 0 .3-.08.57.57 0 0 0 .26-.32l3.47-11a1.72 1.72 0 1 0-.75-3.25L10.27 7.6a.57.57 0 0 0-.81.81L14.04 13c-.35.71-.15 1.58.48 2.07l-3.3 10.47a12.6 12.6 0 1 1 9.48-.31l-.36-1.68a.57.57 0 0 0-.94-.31l-3.44 3.07a.57.57 0 0 0 .2.98l4.4 1.4a.57.57 0 0 0 .74-.66l-.36-1.65a13.7 13.7 0 0 0 8.38-12.65zm-13.74-.57a.57.57 0 1 1 0 1.14.57.57 0 0 1 0-1.14zm1.89 13.34 1.96-1.75.54 2.55-2.5-.8z"
                style="fill:var(--color1, #212121)" />
            <path fill="#afb1b8"
                d="M15.01 2.86V4a.57.57 0 1 0 1.14 0V2.86a.57.57 0 1 0-1.14 0zM4.7 13.16a.57.57 0 1 0 0 1.14h1.15a.57.57 0 1 0 0-1.14H4.71zM26.46 14.3a.57.57 0 1 0 0-1.14H25.3a.57.57 0 1 0 0 1.14h1.15z"
                style="fill:var(--color2, #afb1b8)" />
        </symbol>
        <symbol id="icon-pc" viewBox="0 0 32 32">
            <path fill="#afb1b8"
                d="M14.93 14.96h1.06v4.8h-1.06v-4.8zM19.19 17.1h1.07v2.66h-1.07V17.1zM10.66 18.7h1.07v1.06h-1.07V18.7zM7.46 18.16h1.07v1.6H7.46v-1.6z"
                style="fill:var(--color2, #afb1b8)" />
            <path fill="#212121"
                d="M1.6 28.3h25.59c.88 0 1.6-.73 1.6-1.6v-2.14c0-.88-.72-1.6-1.6-1.6h-.54V9.66l3.03-2.86a1.6 1.6 0 1 0-.75-.76L26.65 8.2V6.97c0-.88-.71-1.6-1.6-1.6H3.73c-.88 0-1.6.72-1.6 1.6v16H1.6c-.88 0-1.6.7-1.6 1.6v2.12c0 .89.72 1.6 1.6 1.6zM30.38 4.83a.53.53 0 1 1 0 1.06.53.53 0 0 1 0-1.06zM3.2 6.97c0-.3.24-.53.53-.53h21.32c.3 0 .54.23.54.53V9.2l-1.07 1.01V8.03c0-.29-.24-.53-.53-.53H4.79c-.29 0-.53.24-.53.53v13.33c0 .3.24.53.54.53h19.19c.3 0 .53-.23.53-.53V11.7l1.07-1.01v12.28H3.19v-16zM8 13.9a1.6 1.6 0 1 0 1.1 2.75l1.86.93c.21.1.47.06.63-.12l3.94-4.44 3.87 2.9c.21.16.5.14.69-.03l3.36-3.2v8.14H5.33V8.57h18.12v2.66l-3.77 3.57-3.9-2.93a.53.53 0 0 0-.72.08l-4 4.49-1.49-.75c.02-.06.02-.13.02-.19 0-.88-.71-1.6-1.6-1.6zm.53 1.6a.53.53 0 1 1-1.07 0 .53.53 0 0 1 1.07 0zm3.2 8.53h5.33v.53c0 .3-.24.53-.53.53h-4.27a.53.53 0 0 1-.53-.53v-.53zm-10.66.53c0-.3.24-.53.53-.53h9.06v.53c0 .88.72 1.6 1.6 1.6h4.26c.89 0 1.6-.72 1.6-1.6v-.53h9.06c.3 0 .54.24.54.53v2.13c0 .3-.24.53-.53.53H1.59a.53.53 0 0 1-.52-.53v-2.13z"
                style="fill:var(--color1, #212121)" />
        </symbol>
        <symbol id="icon-instagram" viewBox="0 0 32 32">
            <path fill="#afb1b8"
                d="M31.97 9.4a11.7 11.7 0 0 0-.74-3.87 7.8 7.8 0 0 0-1.86-2.84A7.87 7.87 0 0 0 26.54.84C25.52.45 24.36.17 22.66.1 20.95.02 20.4 0 16.06 0s-4.89.02-6.6.1C7.76.16 6.6.43 5.58.83a7.8 7.8 0 0 0-2.84 1.85A7.87 7.87 0 0 0 .9 5.52C.5 6.54.23 7.7.16 9.4c-.08 1.71-.1 2.26-.1 6.6s.02 4.9.09 6.6c.08 1.7.35 2.87.74 3.88a7.9 7.9 0 0 0 1.85 2.84c.8.81 1.77 1.44 2.84 1.84 1.02.4 2.18.67 3.88.75 1.7.07 2.25.09 6.6.09s4.88-.02 6.59-.1a11.7 11.7 0 0 0 3.88-.74 8.18 8.18 0 0 0 4.68-4.68c.4-1.02.67-2.18.75-3.88.07-1.7.09-2.25.09-6.6s0-4.89-.08-6.6zm-2.88 13.07a8.76 8.76 0 0 1-.55 2.97 5.31 5.31 0 0 1-3.04 3.04c-.56.22-1.41.48-2.97.55-1.69.07-2.2.1-6.46.1s-4.79-.02-6.47-.1a8.76 8.76 0 0 1-2.97-.55 4.93 4.93 0 0 1-1.84-1.2 4.97 4.97 0 0 1-1.19-1.83 8.81 8.81 0 0 1-.55-2.97c-.07-1.69-.1-2.2-.1-6.47s.03-4.78.1-6.46c.07-1.56.33-2.4.55-2.97.26-.7.66-1.32 1.2-1.84a4.97 4.97 0 0 1 1.84-1.19A8.81 8.81 0 0 1 9.6 3c1.69-.07 2.2-.1 6.46-.1 4.28 0 4.78.03 6.47.1 1.56.07 2.4.33 2.96.55.7.26 1.33.66 1.84 1.2.53.51.94 1.14 1.2 1.83.22.57.48 1.42.55 2.97.07 1.69.1 2.2.1 6.46s-.03 4.77-.1 6.46z"
                style="fill:var(--color2, #afb1b8)" />
            <path fill="#afb1b8"
                d="M16.06 7.78a8.22 8.22 0 1 0 0 16.45 8.22 8.22 0 0 0 0-16.45zm0 13.55a5.33 5.33 0 1 1 0-10.66 5.33 5.33 0 0 1 0 10.67zM26.52 7.46a1.92 1.92 0 1 1-3.83 0 1.92 1.92 0 0 1 3.83 0z"
                style="fill:var(--color2, #afb1b8)" />
        </symbol>
        <symbol id="icon-Logo6" viewBox="0 0 64 32">
            <path fill="#afb1b8"
                d="M32.26 16.6c-.27-.36-.4-.78-.37-1.2v-1.74c0-.54.12-.94.36-1.22s.66-.41 1.25-.41c.56 0 .95.12 1.18.35.26.3.38.67.35 1.04v.41h-1v-.41c.01-.14 0-.27-.02-.4a.39.39 0 0 0-.14-.25.57.57 0 0 0-.36-.1.6.6 0 0 0-.38.1.46.46 0 0 0-.16.27c-.03.14-.04.29-.04.43v2.11c-.02.2.03.41.13.6.04.06.11.11.2.14s.16.04.25.03c.13.01.25-.02.35-.1a.42.42 0 0 0 .15-.25l.03-.42v-.43h1v.4c.02.38-.1.76-.35 1.08-.23.26-.62.4-1.19.4s-1-.15-1.24-.43zM36.38 16.62c-.25-.27-.37-.67-.37-1.19V13.6c0-.52.12-.9.37-1.17s.67-.4 1.26-.4c.58 0 1 .13 1.25.4.25.26.37.65.37 1.17v1.83c0 .52-.12.91-.38 1.19s-.67.4-1.24.4c-.58 0-1-.13-1.26-.4zm1.72-.44c.09-.17.13-.36.12-.54v-2.25a1 1 0 0 0-.12-.53c-.05-.06-.12-.11-.2-.14s-.17-.04-.26-.03c-.1-.01-.18 0-.27.03s-.15.08-.2.14a.98.98 0 0 0-.12.53v2.26a1 1 0 0 0 .12.54c.06.06.13.1.21.13s.17.05.26.05a.69.69 0 0 0 .46-.18v-.01zM40.45 12.08h1.07l.8 3.38.82-3.38h1.04l.1 4.88h-.76l-.08-3.39-.8 3.39h-.6l-.83-3.4-.08 3.4h-.77l.1-4.88zM45.48 12.08h1.66c.96 0 1.44.46 1.44 1.39 0 .88-.5 1.32-1.51 1.32h-.57v2.17h-1.03l.01-4.88zm1.42 2.09c.1 0 .2 0 .3-.03s.2-.07.27-.13a.8.8 0 0 0 .14-.55c0-.15 0-.3-.04-.44-.02-.05-.04-.1-.08-.14s-.08-.07-.13-.1c-.14-.05-.3-.08-.46-.07h-.4v1.45h.4zM50.06 12.08h1.1l1.13 4.88h-.96l-.22-1.13h-.98l-.23 1.13h-.97l1.13-4.88zm.94 3.19-.38-2.05-.39 2.05H51zM53.2 12.08h.72l1.38 2.78v-2.78h.85v4.88h-.69l-1.38-2.9v2.9h-.88v-4.88zM58.14 15.1 57 12.09h.96l.7 1.93.65-1.93h.94l-1.13 3v1.87h-.98V15.1zM33.84 19.09v.26H33v1.98h-.35v-1.99h-.84v-.25h2.03zM36.46 21.33h-.27c-.02 0-.05 0-.07-.02a.12.12 0 0 1-.05-.05l-.24-.54h-1.16l-.24.54-.04.06a.12.12 0 0 1-.08.02h-.27l1.03-2.24h.36l1.03 2.23zm-1.7-.83h.97l-.4-.91a1.61 1.61 0 0 1-.08-.21l-.04.12-.04.09-.4.9zM38.23 21.1h.2a1.12 1.12 0 0 0 .3-.06l.14-.06v-.5h-.44l-.02-.02-.02-.01v-.2h.8v.86a1.53 1.53 0 0 1-.7.23l-.3.01c-.17 0-.35-.03-.51-.08-.16-.05-.3-.13-.41-.24-.12-.1-.2-.22-.27-.35a1.1 1.1 0 0 1-.1-.46c0-.16.04-.32.1-.47.06-.13.15-.25.27-.36.11-.1.25-.18.4-.23a1.73 1.73 0 0 1 .84-.06 1.44 1.44 0 0 1 .45.14l.18.12-.1.14-.03.03-.05.01c-.02 0-.05 0-.06-.02a1.27 1.27 0 0 1-.1-.05 1.31 1.31 0 0 0-.98-.07.78.78 0 0 0-.5.45c-.1.25-.1.51 0 .75.04.1.11.2.2.29a.87.87 0 0 0 .7.22zM41.5 21.07h1.12v.26h-1.46v-2.24h.35v1.98zM43.79 21.33h-.35v-2.24h.35v2.24zM45.1 19.1l.04.04 1.5 1.69v-1.75h.3v2.25h-.17c-.02 0-.05 0-.07-.02a.2.2 0 0 1-.06-.04l-1.5-1.68V21.33h-.29v-2.24h.18l.06.01zM49.53 19.09v.25H48.3v.73h1v.24h-1v.76h1.24v.25h-1.6v-2.23h1.6zM12.78 5.28 28.35 9.1v13.37l-15.57-3.81V5.28zm-1-1.14V19.3l17.57 4.3V8.46L11.78 4.14z"
                style="fill:var(--color2, #afb1b8)" />
            <path fill="#afb1b8" d="M21.2 30.66 3.62 26.35V11.18l17.57 4.3v15.18z"
                style="fill:var(--color2, #afb1b8)" />
            <path fill="#afb1b8"
                d="m12.07 5.1 15.37 3.78-6.54 5.64-15.37-3.77 6.54-5.64zm-.3-.96-8.15 7.04 17.57 4.3 8.16-7.03-17.57-4.31zM22.18 29.8l7.17-6.18-7.17-1.76v7.95z"
                style="fill:var(--color2, #afb1b8)" />
        </symbol>
        <symbol id="icon-Logo5" viewBox="0 0 64 32">
            <path fill="#afb1b8"
                d="M16.16 27.06c.14.17.22.38.22.6 0 .13-.02.27-.08.4s-.15.24-.27.34c-.28.2-.64.3-1 .27h-1.75v-3.74H15c.34-.02.68.07.95.25.11.08.2.2.26.31s.08.26.07.39c.01.2-.06.4-.2.57a.94.94 0 0 1-.52.3c.24.03.44.15.6.31zm-2.06-.56h.73c.17 0 .34-.03.47-.13.06-.04.1-.1.13-.16s.03-.13.03-.2 0-.14-.04-.2-.06-.12-.12-.17a.76.76 0 0 0-.48-.12h-.72v.98zm1.27 1.43c.06-.05.1-.1.14-.17s.04-.14.03-.2c0-.08 0-.15-.04-.22s-.07-.12-.13-.17a.8.8 0 0 0-.5-.14h-.77v1.03h.78c.17.01.35-.03.49-.13zM19.66 28.67l-.95-1.46h-.36v1.46h-.82v-3.74h1.55c.4-.02.79.1 1.09.32.21.2.35.47.37.75s-.07.57-.26.8c-.19.2-.45.33-.74.38l1.02 1.5h-.9zm-1.3-1.97h.66c.47 0 .7-.19.7-.57 0-.07 0-.15-.03-.22s-.08-.14-.14-.2a.78.78 0 0 0-.53-.15h-.68l.01 1.14zM24.16 27.92h-1.64l-.29.75h-.86l1.5-3.7h.93l1.5 3.7h-.86l-.28-.75zm-.22-.57-.6-1.58-.6 1.58h1.2zM29.78 28.67h-.82l-1.82-2.54v2.54h-.82v-3.74h.82l1.82 2.56v-2.56h.82v3.74zM34.44 27.77a1.7 1.7 0 0 1-.74.66 2.6 2.6 0 0 1-1.15.24H31.1v-3.74h1.45c.4 0 .8.07 1.15.23.3.15.57.37.73.65a2.02 2.02 0 0 1 0 1.97zm-.94-.09c.23-.24.36-.56.36-.89s-.13-.64-.36-.89a1.5 1.5 0 0 0-1.02-.32h-.57V28h.57c.37.02.74-.09 1.02-.31zM24.67 4.14s10.53 3.64 10.3 8.9v8.91s-10.52-3.64-10.3-8.9V4.13zM44.35 19.87a15.27 15.27 0 0 1 6.7-2.26v-2.79a13.53 13.53 0 0 0-6.7 5.05z"
                style="fill:var(--color2, #afb1b8)" />
            <path fill="#afb1b8"
                d="M43.16 20.7c1.63-3 4.45-5.3 7.88-6.46V6.2s-15 5.19-14.68 12.69v12.68s.67-.23 1.72-.67c0-.4 0-.81.05-1.22.31-3.48 2.12-6.71 5.03-8.97z"
                style="fill:var(--color2, #afb1b8)" />
            <path fill="#afb1b8"
                d="M41.73 25.42c.08-.88.26-1.75.53-2.6a11.73 11.73 0 0 0-3.18 7.66c.86-.37 1.85-.84 2.89-1.39-.27-1.2-.35-2.44-.24-3.67zM42.33 25.46a11.5 11.5 0 0 0 .18 3.33c4.1-2.24 8.7-5.71 8.53-9.9v-.37a14 14 0 0 0-7.8 3.34c-.5 1.15-.8 2.37-.91 3.6z"
                style="fill:var(--color2, #afb1b8)" />
        </symbol>
        <symbol id="icon-Logo4" viewBox="0 0 64 32">
            <path fill="#afb1b8"
                d="M14.58 12.8c-1.45 0-2.63 1.04-2.63 2.32 0 1.3 1.18 2.34 2.63 2.34s2.62-1.05 2.62-2.33c0-1.3-1.17-2.34-2.62-2.34zM33.93 12.05c0-1.79-.8-3.5-2.23-4.77s-3.35-1.97-5.36-1.98c-2 0-3.94.72-5.36 1.98s-2.22 2.98-2.23 4.77v9.85s15.18-1.5 15.18-9.85zM6.64 25.14c0 1.24.56 2.43 1.55 3.31s2.33 1.38 3.73 1.38 2.74-.5 3.73-1.37 1.55-2.07 1.55-3.32v-6.86S6.64 19.33 6.64 25.14zm5.28 1.23c-.27 0-.54-.07-.77-.2s-.4-.34-.5-.56c-.11-.23-.14-.47-.09-.71s.19-.46.38-.63a1.52 1.52 0 0 1 1.5-.27c.26.1.48.25.63.46s.23.44.23.68c0 .16-.03.32-.1.47s-.17.29-.3.4c-.13.12-.28.2-.45.27s-.35.1-.53.1v-.01zM21.57 24.17v2.57h-.53v-2.57h.53zm1.03 1.1v.41h-1.17v-.41h1.17zm.12-1.1v.41h-1.3v-.41h1.3zm2.43 1.23v.12c0 .2-.03.37-.08.53s-.13.28-.23.4a1.1 1.1 0 0 1-.8.34 1 1 0 0 1-.8-.34 1.63 1.63 0 0 1-.3-.93v-.12c.01-.2.04-.38.1-.53.04-.16.12-.29.22-.4.1-.1.2-.2.34-.25.14-.06.29-.09.45-.09.16 0 .3.03.44.09s.25.14.35.25c.1.11.17.24.22.4.06.15.09.33.09.53zm-.54.12v-.13c0-.14-.01-.26-.04-.36s-.06-.19-.1-.26a.46.46 0 0 0-.18-.16c-.07-.04-.15-.06-.24-.06s-.17.02-.24.06a.47.47 0 0 0-.18.16c-.04.07-.08.16-.1.26s-.04.22-.04.36v.13c0 .13.01.25.04.36.02.1.06.2.1.26a.48.48 0 0 0 .42.22.5.5 0 0 0 .41-.22.84.84 0 0 0 .11-.26c.03-.1.04-.23.04-.36zm2.26.55c0-.05 0-.09-.02-.12a.24.24 0 0 0-.08-.1c-.03-.04-.08-.07-.15-.1l-.26-.1a3.34 3.34 0 0 1-.33-.12c-.1-.05-.2-.1-.28-.17a.74.74 0 0 1-.18-.22.6.6 0 0 1-.07-.3c0-.1.02-.2.07-.28a.67.67 0 0 1 .2-.23.93.93 0 0 1 .3-.15 1.37 1.37 0 0 1 .88.06.8.8 0 0 1 .33.28c.08.12.12.25.12.4h-.53a.4.4 0 0 0-.05-.2.32.32 0 0 0-.14-.13.5.5 0 0 0-.23-.05c-.1 0-.17.02-.23.05a.31.31 0 0 0-.14.1.27.27 0 0 0-.05.16c0 .05.01.08.03.12l.1.1.16.09.23.08c.14.04.26.09.37.14.1.05.2.11.26.18s.13.14.17.22a.7.7 0 0 1 .05.29c0 .11-.02.21-.06.3s-.11.16-.2.22-.17.11-.29.14a1.42 1.42 0 0 1-.76 0 1.13 1.13 0 0 1-.34-.15.74.74 0 0 1-.33-.64h.53c0 .08.02.15.04.2s.06.1.1.14c.05.03.1.06.17.07.06.02.13.02.2.02.1 0 .17 0 .23-.03s.1-.07.14-.11c.03-.05.04-.1.04-.16zm2.04-1.9v2.57h-.53v-2.57h.53zm.8 0v.41h-2.1v-.41h2.1zm2.02 2.16v.41h-1.37v-.41h1.38zm-1.2-2.16v2.57h-.52v-2.57h.53zm1.03 1.05v.4h-1.2v-.4h1.2zm.17-1.05v.41h-1.37v-.41h1.37zm.32 0H33c.2 0 .36.03.5.09.15.05.26.14.33.26s.12.26.12.42c0 .14-.03.26-.07.36a.66.66 0 0 1-.2.24c-.08.07-.18.12-.3.16l-.16.09h-.84v-.42H33c.1 0 .17-.01.23-.04s.1-.08.14-.14a.42.42 0 0 0 .05-.2c0-.09-.02-.16-.05-.22s-.08-.1-.14-.14a.51.51 0 0 0-.23-.05h-.43v2.16h-.53v-2.57zm1.43 2.57-.58-1.14h.56l.6 1.12v.02h-.58zm2.79-.91h-.66v-.42h.66c.1 0 .18-.02.25-.05.06-.03.1-.08.14-.14s.04-.13.04-.2c0-.08-.01-.15-.04-.22s-.08-.12-.14-.16-.15-.06-.25-.06h-.47v2.16h-.53v-2.57h1c.2 0 .37.04.52.1a.79.79 0 0 1 .45.75c0 .16-.04.3-.12.43s-.19.21-.33.28c-.15.06-.32.1-.52.1zm3.06.5v.41h-1.37v-.41h1.37zm-1.2-2.16v2.57h-.53v-2.57h.53zm1.02 1.05v.4h-1.19v-.4h1.2zm.18-1.05v.41h-1.37v-.41h1.37zm1.5 0v2.57h-.53v-2.57h.53zm.79 0v.41h-2.1v-.41h2.1zm2.03 2.16v.41h-1.37v-.41h1.37zm-1.2-2.16v2.57h-.53v-2.57h.53zm1.02 1.05v.4h-1.19v-.4h1.2zm.18-1.05v.41h-1.37v-.41h1.37zm.31 0h.96c.2 0 .37.03.5.09.15.05.26.14.34.26s.11.26.11.42c0 .14-.02.26-.07.36a.66.66 0 0 1-.2.24c-.08.07-.18.12-.29.16l-.17.09h-.83v-.42h.61c.1 0 .17-.01.24-.04s.1-.08.13-.14a.42.42 0 0 0 .05-.2c0-.09-.01-.16-.04-.22s-.08-.1-.14-.14a.51.51 0 0 0-.24-.05h-.43v2.16h-.53v-2.57zm1.44 2.57-.59-1.14h.56l.6 1.12v.02h-.57zm2.22-.67c0-.05 0-.09-.02-.12a.24.24 0 0 0-.07-.1c-.04-.04-.1-.07-.16-.1l-.25-.1a3.34 3.34 0 0 1-.34-.12c-.1-.05-.2-.1-.27-.17a.74.74 0 0 1-.19-.22.6.6 0 0 1-.07-.3c0-.1.03-.2.07-.28a.67.67 0 0 1 .2-.23.93.93 0 0 1 .3-.15 1.37 1.37 0 0 1 .88.06.8.8 0 0 1 .33.28c.08.12.12.25.12.4h-.52a.4.4 0 0 0-.05-.2.32.32 0 0 0-.15-.13.5.5 0 0 0-.23-.05c-.1 0-.17.02-.23.05a.31.31 0 0 0-.14.1.27.27 0 0 0-.05.16c0 .05.01.08.04.12.02.04.05.07.1.1l.16.09.22.08c.14.04.26.09.37.14.1.05.2.11.27.18s.12.14.16.22a.7.7 0 0 1 .05.29c0 .11-.02.21-.06.3s-.1.16-.19.22-.18.11-.3.14a1.42 1.42 0 0 1-.76 0 1.13 1.13 0 0 1-.33-.15c-.1-.07-.18-.16-.25-.26s-.09-.23-.09-.38h.54c0 .08 0 .15.03.2s.06.1.1.14c.05.03.1.06.17.07.06.02.13.02.21.02.1 0 .17 0 .23-.03s.1-.07.13-.11c.03-.05.04-.1.04-.16z"
                style="fill:var(--color2, #afb1b8)" />
        </symbol>
        <symbol id="icon-Logo3" viewBox="0 0 64 32">
            <path fill="#afb1b8"
                d="M21.98 29.7h.03l.02.02.13.13c-.1.1-.22.18-.37.23-.16.07-.34.1-.52.09a1.4 1.4 0 0 1-.5-.08 1 1 0 0 1-.61-.57c-.05-.15-.08-.3-.08-.45a1.04 1.04 0 0 1 .74-1.03c.16-.05.33-.08.5-.08a1.26 1.26 0 0 1 .83.28l-.1.13-.03.03a.08.08 0 0 1-.05 0h-.05l-.05-.04-.09-.05a.87.87 0 0 0-.26-.08 1.17 1.17 0 0 0-.56.05c-.1.03-.2.1-.28.16a.78.78 0 0 0-.19.27.9.9 0 0 0-.07.36c0 .12.02.24.07.36a.78.78 0 0 0 .46.43c.1.04.22.06.34.06l.2-.01a.8.8 0 0 0 .43-.19.1.1 0 0 1 .06-.02zM25.78 29.07c0 .15-.02.3-.09.44-.05.13-.13.25-.24.35s-.25.17-.4.22c-.31.11-.67.11-1 0a1.17 1.17 0 0 1-.38-.22 1 1 0 0 1-.25-.35c-.12-.3-.12-.6 0-.9.06-.12.14-.24.25-.34.11-.1.24-.17.39-.22.32-.11.68-.11 1 0 .14.05.28.13.39.22a1.03 1.03 0 0 1 .33.8zm-.34 0a.94.94 0 0 0-.07-.36.73.73 0 0 0-.45-.44c-.23-.08-.5-.08-.73 0-.1.04-.2.1-.27.17a.72.72 0 0 0-.18.27c-.09.23-.09.48 0 .71a.72.72 0 0 0 .45.44c.24.07.5.07.73 0 .1-.04.2-.1.28-.17a.75.75 0 0 0 .18-.27.96.96 0 0 0 .06-.36zM28.38 29.44l.03.08a2.03 2.03 0 0 1 .08-.16l.85-1.33.04-.04h.32v2.16h-.3V28.42l-.84 1.34-.05.05a.17.17 0 0 1-.07.02h-.05c-.03 0-.05 0-.07-.02l-.05-.05-.87-1.35V30.15h-.29v-2.17h.25l.07.01a.1.1 0 0 1 .05.04l.86 1.33.04.08zM31.54 29.33v.81h-.32V28h.73c.14 0 .28 0 .4.04.12.03.21.07.3.14.07.05.13.13.16.2.04.1.06.19.06.28a.6.6 0 0 1-.24.5.83.83 0 0 1-.29.14 1.4 1.4 0 0 1-.4.05h-.4zm0-.23h.4a.9.9 0 0 0 .26-.03.56.56 0 0 0 .18-.1.41.41 0 0 0 .15-.32c0-.06 0-.12-.03-.17s-.07-.11-.12-.15a.7.7 0 0 0-.44-.12h-.4v.9zM35.97 30.15h-.26l-.07-.02a.14.14 0 0 1-.05-.05l-.22-.53h-1.12l-.24.53a.12.12 0 0 1-.11.07h-.26l.99-2.16h.34l1 2.16zm-1.63-.8h.93l-.4-.89a1.37 1.37 0 0 1-.07-.2l-.04.11c0 .04-.02.07-.03.1l-.4.87zM37.4 28l.04.03 1.44 1.63V28h.3v2.16H39c-.02 0-.05 0-.07-.02a.19.19 0 0 1-.05-.04l-1.44-1.62V30.15h-.3v-2.17h.18l.06.01zM41.6 29.29v.85h-.33v-.85l-.9-1.3h.29l.07.01.04.05.57.84a1.29 1.29 0 0 1 .1.2l.05-.1a.8.8 0 0 1 .05-.1l.56-.84a.23.23 0 0 1 .05-.05.11.11 0 0 1 .07-.02h.3l-.92 1.3zM28.21 24.36l.44.04c2.22-.86 4.1-2.28 5.4-4.06s1.97-3.87 1.92-5.98l-2.45-2.13c.5 2.25.27 4.58-.67 6.72s-2.54 4.01-4.63 5.4z"
                style="fill:var(--color2, #afb1b8)" />
            <path fill="#afb1b8"
                d="m27.34 24.26.07.01c2.23-1.39 3.94-3.33 4.9-5.57s1.1-4.68.44-7l-3.48-3.03c1.4 2.5 1.97 5.28 1.63 8.04s-1.57 5.38-3.56 7.55zM39.17 16.85a10.9 10.9 0 0 1-4.1 5.98c-.61.45-1.26.86-1.96 1.21 1.7-.43 3.24-1.19 4.54-2.22s2.3-2.31 2.93-3.74l-1.41-1.22z"
                style="fill:var(--color2, #afb1b8)" />
            <path fill="#afb1b8"
                d="m38.61 16.51-2.01-1.75c-.04 2-.7 3.95-1.9 5.65s-2.9 3.09-4.92 4.03h.01c.45 0 .9-.03 1.35-.07 1.9-.68 3.57-1.75 4.87-3.12s2.2-3 2.6-4.74zM27.63 7.4l-2.4-2.1c-2.15.73-4 2-5.3 3.64s-2 3.6-2.01 5.6c0 2.21.86 4.35 2.43 6.1s3.76 2.97 6.23 3.5c2.2-2.33 3.5-5.2 3.68-8.22s-.73-6-2.63-8.53zM44.16 16.19c0-2.62-1.21-5.13-3.35-6.99s-5.02-2.9-8.04-2.9c-1.4 0-2.78.22-4.08.66l14.7 12.77c.51-1.13.77-2.33.77-3.54z"
                style="fill:var(--color2, #afb1b8)" />
        </symbol>
        <symbol id="icon-Logo2" viewBox="0 0 64 32">
            <path fill="#afb1b8"
                d="M30.26 3.64h-.09l-.38-.02h-.27a14.79 14.79 0 0 0-.78.02c-2.2.13-4.36.68-6.35 1.62l-.26.13v13.36l.6-.2a20.73 20.73 0 0 1 6.59-1.15v1.75c-.21 0-.43 0-.64.02h-.05a19.6 19.6 0 0 0-8.24 2.32V4.35c1.47-.86 3.05-1.5 4.7-1.92 1.45-.37 2.94-.56 4.43-.57h.26c.3.01.6.02.9.05.73.05 1.47.17 2.2.35v1.73a13.54 13.54 0 0 0-2.62-.35zM33.3 5.4a19 19 0 0 0 5.84-.55c1.56-.4 3.06-.98 4.48-1.75v16.84c-1.47.86-3.06 1.5-4.7 1.91-1.45.38-2.94.57-4.43.57-1.14.01-2.26-.12-3.36-.4V5.09a13.76 13.76 0 0 0 2.17.32zm8.57.13-.61.2a20.7 20.7 0 0 1-7.9 1.13l-.48-.03v13.75l.42.04a16.28 16.28 0 0 0 5.19-.47c1.07-.27 2.12-.64 3.12-1.12l.26-.12V5.53zM21.58 27.35a.9.9 0 0 0-.68-.27 1 1 0 0 0-.7.27.98.98 0 0 0-.27.69v2.29c0 .16.03.32.1.47a.8.8 0 0 0 .54.47c.1.03.22.04.34.05a.96.96 0 0 0 .95-.96v-.26h-.6v.2c0 .07-.01.14-.04.2a.37.37 0 0 1-.08.13.41.41 0 0 1-.25.09c-.06 0-.11 0-.16-.02s-.1-.06-.12-.1a.54.54 0 0 1-.08-.3v-2.14c0-.12.02-.24.07-.35a.3.3 0 0 1 .3-.13.32.32 0 0 1 .26.12c.07.1.1.2.1.31v.2h.6v-.23c0-.14-.03-.28-.08-.4a.93.93 0 0 0-.2-.33zM25.13 27.32c-.19-.16-.43-.25-.68-.25a1.06 1.06 0 0 0-.67.25c-.1.1-.18.2-.23.32-.06.14-.1.3-.09.45v2.2c0 .15.03.3.09.45.05.11.13.22.23.3.1.09.2.15.32.2a1.04 1.04 0 0 0 1.03-.2.94.94 0 0 0 .32-.75v-2.2c0-.15-.03-.3-.09-.45a.99.99 0 0 0-.23-.32zm-.27 2.97a.39.39 0 0 1-.12.31.44.44 0 0 1-.57 0 .39.39 0 0 1-.12-.31v-2.2a.39.39 0 0 1 .12-.32.44.44 0 0 1 .57 0 .39.39 0 0 1 .12.32v2.2zM29.8 31.27V27.1h-.57l-.76 2.2-.77-2.2h-.57v4.16h.6v-2.53l.59 1.79h.3l.58-1.8h.01v2.54h.6zM33.18 27.4a.82.82 0 0 0-.33-.23 1.31 1.31 0 0 0-.43-.06h-.89v4.16h.6v-1.63h.3c.19.01.37-.03.54-.11a.99.99 0 0 0 .46-.68 3 3 0 0 0-.03-1.07.9.9 0 0 0-.22-.38zm-.3 1.27c0 .07-.02.15-.06.21a.33.33 0 0 1-.15.15.61.61 0 0 1-.28.05h-.27v-1.41h.3c.1 0 .19.01.27.05.06.04.11.09.14.15.03.08.05.16.05.24v.56zM35.99 27.1h-.49l-.91 4.17h.6l.17-.9h.8l.18.9h.59l-.94-4.16zm-.55 2.7.3-1.5.3 1.5h-.6zM39.82 29.61h-.01l-.9-2.5h-.57v4.16h.6v-2.5l.91 2.5h.56V27.1h-.6v2.5zM43.44 27.1l-.48 1.66-.49-1.65h-.62l.81 2.4v1.76h.6V29.5l.8-2.4h-.62z"
                style="fill:var(--color2, #afb1b8)" />
        </symbol>
        <symbol id="icon-Logo1" viewBox="0 0 64 32">
            <path fill="#afb1b8"
                d="m22.94 4.28 4.23 4h-7.85V27.7h20.53v-7.43l4.22 4v-20H22.94zM39.66 19.8l-12-11.35h12V19.8zm-3.72 5.06H22.57V11.8h.94V24h12.43v.88zM25.73 30.3l-.5 1.02-.5-1.02h-.4l.71 1.36v.79h.38v-.8l.72-1.35h-.42zm.62 2.15.17-.5h.83l.18.5h.39l-.82-2.15h-.33l-.81 2.15h.39zm.59-1.7.3.9h-.61l.3-.9zm1.96.84a.49.49 0 0 0-.08.28c0 .18.06.33.2.44.12.11.29.17.5.17s.4-.06.55-.18l.12.15h.42l-.32-.38c.13-.16.19-.38.19-.64h-.31c0 .14-.03.27-.1.39l-.4-.49.14-.1c.1-.08.18-.16.22-.23s.07-.16.07-.25a.44.44 0 0 0-.15-.34.54.54 0 0 0-.38-.14c-.18 0-.31.05-.42.15s-.15.23-.15.4c0 .07.02.14.05.21s.1.16.17.27c-.15.11-.26.21-.31.3zm.97.48a.54.54 0 0 1-.34.12c-.1 0-.2-.03-.25-.1s-.1-.13-.1-.23c0-.12.06-.22.18-.31l.04-.03.47.55zm-.38-.95c-.1-.13-.16-.23-.16-.31 0-.07.03-.13.07-.18s.1-.07.16-.07c.07 0 .12.02.16.06s.07.09.07.14c0 .09-.03.16-.1.21l-.04.04-.16.1zm3.49 1.16c.15-.12.23-.3.25-.53h-.37c-.02.15-.06.26-.14.33s-.18.1-.33.1c-.16 0-.28-.07-.36-.19s-.13-.3-.13-.53v-.19c0-.23.05-.4.14-.52a.44.44 0 0 1 .37-.18c.14 0 .24.04.32.1.07.07.11.19.13.34h.37c-.02-.24-.1-.42-.25-.55s-.33-.19-.57-.19a.81.81 0 0 0-.77.48c-.08.16-.11.34-.11.54v.2c0 .2.04.37.1.52s.18.26.31.35c.13.08.28.12.45.12.25 0 .44-.07.6-.2zm2.2-.3c.06-.15.1-.34.1-.55v-.12c0-.2-.04-.4-.11-.55s-.18-.28-.32-.36c-.13-.09-.28-.13-.46-.13s-.33.04-.47.13c-.13.08-.23.2-.3.37s-.12.34-.12.55v.12c0 .2.04.39.11.55s.18.27.32.36c.13.08.29.13.46.13a.83.83 0 0 0 .78-.5zm-.4-1.2c.08.12.13.3.13.54v.11c0 .24-.05.43-.14.55s-.21.19-.38.19c-.16 0-.29-.06-.38-.2s-.14-.3-.14-.54v-.12c0-.24.05-.41.14-.54.1-.13.22-.19.38-.19.17 0 .3.06.38.2z"
                style="fill:var(--color2, #afb1b8)" />
        </symbol>
        <symbol id="icon-linkedin" viewBox="0 0 32 32">
            <path fill="#afb1b8"
                d="M32 32V20.26c0-5.74-1.24-10.16-7.95-10.16-3.23 0-5.39 1.77-6.27 3.45h-.1v-2.92h-6.36V32h6.63V21.42c0-2.79.52-5.48 3.97-5.48 3.4 0 3.45 3.18 3.45 5.66V32H32zM.53 10.64h6.63V32H.53V10.64zM3.84 0C1.72 0 0 1.72 0 3.84s1.72 3.88 3.84 3.88A3.88 3.88 0 0 0 7.7 3.84 3.85 3.85 0 0 0 3.84 0z"
                style="fill:var(--color2, #afb1b8)" />
        </symbol>
        <symbol id="icon-facebook" viewBox="0 0 18 32">
            <path fill="#afb1b8"
                d="M13.33 5.31h2.92V.23C15.75.15 14.01 0 11.99 0 7.8 0 4.9 2.65 4.9 7.52V12H.26v5.69H4.9V32h5.7V17.69h4.46l.7-5.69H10.6V8.08c0-1.64.44-2.77 2.73-2.77z"
                style="fill:var(--color2, #afb1b8)" />
        </symbol>
        <symbol id="icon-twitter" viewBox="0 0 36 32">
            <path fill="#afb1b8"
                d="M35.56 4.98a15.2 15.2 0 0 1-4.2 1.15 7.25 7.25 0 0 0 3.2-4.03c-1.4.84-2.96 1.43-4.62 1.76a7.29 7.29 0 0 0-12.44 6.65A20.63 20.63 0 0 1 2.48 2.88a7.3 7.3 0 0 0 2.24 9.74 7.19 7.19 0 0 1-3.3-.9v.09a7.32 7.32 0 0 0 5.84 7.16 7.28 7.28 0 0 1-3.29.12c.95 2.88 3.63 5 6.81 5.07A14.65 14.65 0 0 1 0 27.17a20.52 20.52 0 0 0 11.19 3.27c13.4 0 20.74-11.1 20.74-20.74 0-.32 0-.63-.02-.94a14.55 14.55 0 0 0 3.65-3.78z"
                style="fill:var(--color2, #afb1b8)" />
        </symbol>
        <symbol id="icon-astronauta-1" viewBox="0 0 32 32">
            <path fill="#afb1b8"
                d="M31.97 4.52a.53.53 0 0 0-.43-.36l-1.9-.28-.86-1.73c-.18-.36-.78-.36-.96 0l-.85 1.73-1.91.28a.54.54 0 0 0-.3.91l1.38 1.35-.32 1.9c-.04.2.05.4.21.52.17.12.38.14.56.04l1.71-.9 1.71.9a.54.54 0 0 0 .78-.56l-.33-1.9 1.38-1.35c.15-.14.2-.35.14-.55zm-2.46 1.33a.53.53 0 0 0-.15.47l.19 1.12-1-.53a.53.53 0 0 0-.5 0l-1 .53.2-1.12a.53.53 0 0 0-.16-.47l-.81-.79 1.12-.16a.53.53 0 0 0 .4-.3l.5-1 .5 1c.08.16.23.27.4.3l1.12.16-.8.8zM26.13 20.52h-1.06v1.07h1.06v-1.07zM26.13 22.66h-1.06v1.06h1.06v-1.06zM27.2 21.59h-1.07v1.07h1.07v-1.07zM25.07 21.59H24v1.07h1.07v-1.07zM22.4 26.39h-1.07v1.07h1.07v-1.07zM22.4 28.52h-1.07v1.07h1.07v-1.07zM23.47 27.46H22.4v1.06h1.07v-1.06zM21.33 27.46h-1.06v1.06h1.06v-1.06zM16 24.26h-1.07v1.06H16v-1.06zM16 26.39h-1.07v1.07H16v-1.07zM17.07 25.32H16v1.07h1.07v-1.07zM14.93 25.32h-1.06v1.07h1.06v-1.07zM5.87 6.12H4.8V7.2h1.07V6.12zM5.87 8.26H4.8v1.06h1.07V8.26zM6.93 7.19H5.87v1.07h1.06V7.19zM4.8 7.19H3.73v1.07H4.8V7.19z"
                style="fill:var(--color2, #afb1b8)" />
            <path fill="#212121"
                d="M24.71 14.16c-.28-.39-.7-.64-1.18-.7-.48-.07-.96.05-1.34.35l-1.26.96-1.9 1.41-1.35-.54A6.94 6.94 0 0 0 14.83 2.4a6.96 6.96 0 0 0-6.96 6.93c0 1.39.42 2.68 1.12 3.76l-2.76-.02H6.2l-.16.03-.03.02h-.02l-3.24 1.6-1.89.9a1.78 1.78 0 0 0 .93 3.3c.3.01.58-.06.84-.2l1.4-.74 2.26-1.17h1.35L2.2 22.2.86 23.55a1.65 1.65 0 0 0 0 2.35 1.67 1.67 0 0 0 2.36 0l1.31-1.3 1.74-1.3.9.89-1.76 1.75-1.34 1.34a1.65 1.65 0 0 0 0 2.36 1.67 1.67 0 0 0 2.36 0l3.48-3.47 1.01-1 .02-.02 5.17-5.66 3.47.5h.07c.07 0 .13-.02.2-.04l.04-.02.06-.03 3.21-2.13.03-.03.04-.03 1.27-1.19c.67-.62.76-1.63.22-2.36zM2.14 17.77a.71.71 0 0 1-.56.05.72.72 0 0 1-.21-1.26l1.31-.63.45 1.31-.99.53zm3.5-1.83-1.55.8-.44-1.28 2.03-1-.04 1.48zm15.1-6.62c0 .92-.22 1.79-.6 2.56l-4.18-1.9a1.86 1.86 0 0 0-.8-1.39l1.47-4.86a5.88 5.88 0 0 1 4.1 5.6zm-11.8 0a5.89 5.89 0 0 1 6.65-5.81l-1.44 4.75h-.05a1.87 1.87 0 1 0 0 3.73c.7 0 1.3-.38 1.62-.95l3.86 1.76A5.9 5.9 0 0 1 8.94 9.32zm5.96.8a.8.8 0 0 1-1.6 0 .8.8 0 0 1 1.6 0zM2.46 25.15a.6.6 0 0 1-.85 0 .6.6 0 0 1 0-.85l.96-.95.85.84-.96.96zm3.22 3.73a.6.6 0 0 1-.86 0 .6.6 0 0 1 0-.84l.97-.96.85.85-.96.95zm3.48-3.47-1.77 1.76-.85-.85 1.76-1.75c.05-.04.07-.09.1-.14l.02-.04c.02-.04.02-.08.03-.13l.01-.07-.02-.1c0-.04 0-.07-.02-.1a.55.55 0 0 0-.09-.14l-.02-.04-1.61-1.6-.06-.04a.5.5 0 0 0-.09-.05.51.51 0 0 0-.09-.04.5.5 0 0 0-.1-.02.5.5 0 0 0-.1 0l-.1.03a.48.48 0 0 0-.1.04l-.06.03-1.77 1.33-.9-.9 2.4-2.39 4.36 4.3-.93.91zm6.82-7.02h-.05a.56.56 0 0 0-.3.08.5.5 0 0 0-.08.06l-.04.03-4.7 5.15-4.33-4.26 2.84-2.82a.53.53 0 0 0-.38-.9H6.72l.03-1.6 3.1.02a6.95 6.95 0 0 0 6.26 1.98c.04.03.08.07.13.09l2.41.96.15.75.18.89-3-.43zm4.04.18-.31-1.56 1.44-1.08.95 1.26-2.08 1.38zm3.75-2.83-.83.79-.94-1.24.84-.64a.73.73 0 0 1 .54-.14.72.72 0 0 1 .4 1.23z"
                style="fill:var(--color1, #212121)" />
            <path fill="#212121"
                d="m13.6 18.54-2.14-2.13a.53.53 0 0 0-.75 0l-2.15 2.13a.54.54 0 0 0 0 .76l2.15 2.13a.54.54 0 0 0 .75 0l2.14-2.13a.54.54 0 0 0 0-.76zm-2.52 1.76L9.7 18.92l1.38-1.38 1.39 1.38-1.39 1.38zM17.16 5.07l-.25 1.04c.07.01 1.73.45 1.73 2.15h1.07c0-2.02-1.66-2.97-2.55-3.19zM19.71 9.32h-1.07v1.07h1.07V9.32z"
                style="fill:var(--color1, #212121)" />
        </symbol>
        <symbol id="icon-celular" viewBox="0 0 20 32">
            <path fill="#757575"
                d="M17 0H3a3 3 0 0 0-3 3v26a3 3 0 0 0 3 3h14a3 3 0 0 0 3-3V3a3 3 0 0 0-3-3zM3 2h14a1 1 0 0 1 1 1v21H2V3a1 1 0 0 1 1-1zm14 28H3a1 1 0 0 1-1-1v-3h16v3a1 1 0 0 1-1 1z"
                style="fill:var(--color3, #757575)" />
        </symbol>
        <symbol id="icon-sobre-activable" viewBox="0 0 43 32">
            <path fill="#afb1b8"
                d="M38.67 0H4a4 4 0 0 0-4 4v24a4 4 0 0 0 4 4h34.67a4 4 0 0 0 4-4V4a4 4 0 0 0-4-4zm0 2.67c.18 0 .35.03.5.1L21.34 18.24 3.5 2.77c.16-.07.33-.1.51-.1h34.67zm0 26.66H4c-.74 0-1.33-.6-1.33-1.33V5.59L20.46 21a1.33 1.33 0 0 0 1.75 0L40 5.59V28c0 .74-.6 1.33-1.34 1.33z"
                style="fill:var(--color2, #afb1b8)" />
        </symbol>
    </defs>
</svg>